<svg width="152" height="30" viewBox="0 0 152 30" fill="none" xmlns="http://www.w3.org/2000/svg">
<path fill-rule="evenodd" clip-rule="evenodd" d="M16.1902 8.84566C16.5616 8.62612 16.9471 8.46112 17.3394 8.35066C17.7388 8.23884 18.1462 8.18248 18.5549 8.18248C18.9632 8.18157 19.3707 8.23793 19.7714 8.35021C20.1619 8.45975 20.5474 8.62475 20.9205 8.8443L22.0304 9.49657L26.5909 6.81203L19.7068 2.76066C19.5186 2.64975 19.3256 2.56703 19.1331 2.51248C18.9419 2.45839 18.7462 2.43157 18.5518 2.43248C18.3579 2.43339 18.1618 2.46157 17.9674 2.51748C17.7673 2.57566 17.5707 2.66021 17.3813 2.77157L3.57559 10.9002L17.4049 19.042C17.5903 19.1511 17.7825 19.2338 17.9773 19.2884C18.1685 19.3425 18.3637 19.3693 18.5581 19.3688C18.7524 19.3679 18.9485 19.3398 19.142 19.2838C19.3421 19.2261 19.5387 19.1416 19.7273 19.0307L37.1101 8.79566L37.1096 11.6029L20.9174 21.1348C20.5465 21.3538 20.1619 21.5188 19.7696 21.6293C19.3693 21.7425 18.9641 21.7998 18.5612 21.8011C18.1569 21.8025 17.7521 21.7479 17.3532 21.637C16.9645 21.5284 16.5812 21.3652 16.2099 21.1466L2.38321 13.0075L2.38277 18.3757L17.4045 27.2184C17.5926 27.3293 17.7856 27.4125 17.9786 27.467C18.1694 27.5211 18.3642 27.5479 18.5581 27.5475C18.7524 27.5466 18.9485 27.5179 19.1424 27.462C19.3421 27.4043 19.5387 27.3202 19.7273 27.2093L37.1087 16.9743L37.1096 19.7825L20.9179 29.3134C20.551 29.5311 20.1654 29.6961 19.7692 29.8079C19.3707 29.9207 18.9659 29.9779 18.5616 29.9793C18.1573 29.9807 17.7526 29.9261 17.3541 29.8152C16.9627 29.7066 16.5794 29.5434 16.2103 29.3261L0.000689888 19.7825L0.000244141 10.1998L16.1929 0.666117C16.5642 0.447481 16.9494 0.282481 17.3416 0.171572C17.7406 0.0588444 18.1457 0.00111714 18.5487 0.000208049C18.953 -0.00115559 19.3582 0.0533899 19.7567 0.164299C20.148 0.27339 20.5318 0.436117 20.9005 0.65339L31.3577 6.81248L22.0282 12.3052L19.7259 10.9498C19.5409 10.8407 19.3466 10.7579 19.1491 10.702C18.9517 10.6466 18.7524 10.6184 18.5567 10.6188C18.3557 10.6193 18.1569 10.647 17.9621 10.702C17.7691 10.7561 17.5756 10.8398 17.3853 10.952L15.083 12.307L12.6978 10.9025L16.1902 8.84566Z" fill="#3BC693"/>
<path fill-rule="evenodd" clip-rule="evenodd" d="M60.6374 10.8533C62.1984 10.8533 63.1986 11.747 63.6364 12.8902C63.8053 13.3329 63.8904 13.8124 63.8904 14.2911C63.8904 14.7697 63.8053 15.2497 63.6364 15.692C63.1986 16.8351 62.1984 17.7292 60.6374 17.7292C59.6973 17.7292 58.8508 17.3861 58.2504 16.757C57.6861 16.1661 57.3406 15.3242 57.3406 14.2792C57.3406 13.2361 57.6852 12.4006 58.2482 11.8152C58.8482 11.1906 59.6964 10.8533 60.6374 10.8533ZM63.7131 10.3879C63.4224 9.87014 62.9495 9.44514 62.3772 9.14832C61.7919 8.84469 61.1032 8.67469 60.398 8.67469L60.3437 8.67423C58.8272 8.67469 57.4771 9.15196 56.5049 10.082C55.5327 11.0124 54.935 12.3988 54.922 14.2183V14.3374C54.9332 16.1938 55.5055 17.6047 56.4581 18.5492C57.4098 19.4929 58.7452 19.9751 60.283 19.9751H60.3303C60.9686 19.9629 61.7469 19.7761 62.4191 19.4038C62.9682 19.0988 63.4452 18.6697 63.71 18.1115L63.9337 18.1538L64.0536 19.6401H66.3318V8.93878H64.0131L63.9337 10.3342L63.7131 10.3879ZM69.0923 19.6402H71.4909V4.36789H69.0923V19.6402ZM76.6772 12.982C76.8755 12.2638 77.2669 11.7188 77.7893 11.3483C78.3389 10.9583 79.032 10.7633 79.7947 10.7633C80.6002 10.7633 81.2911 10.9579 81.7997 11.3474C82.2896 11.722 82.6083 12.2733 82.6974 13.0002L82.7139 13.1352H76.6353L76.6772 12.982ZM85.0194 15.1361C85.0452 14.8238 85.0577 14.5197 85.0577 14.2252C85.0577 12.4947 84.6079 11.1643 83.8074 10.2352C83.0086 9.30744 81.8554 8.77562 80.446 8.64107C80.2102 8.6188 79.9637 8.60744 79.7069 8.60744C78.0198 8.60744 76.6362 9.1788 75.6694 10.1497C74.6789 11.1447 74.1231 12.5611 74.1231 14.2133C74.1231 15.9524 74.6718 17.3952 75.6814 18.3943C76.6705 19.3724 78.1054 19.9302 79.9035 19.9302C80.7455 19.9302 81.6468 19.7743 82.4728 19.4565C83.1824 19.1833 83.8368 18.7911 84.3507 18.2761L82.8192 16.7343C82.5192 17.0147 82.0984 17.2411 81.6393 17.4038C81.0861 17.6006 80.4727 17.7074 79.9468 17.7074C79.0098 17.7074 78.2453 17.4674 77.6855 17.0593C77.0882 16.6247 76.724 16.0002 76.6304 15.272L76.613 15.1361H85.0194ZM95.2586 9.96472C94.6796 9.46472 94.0943 9.13517 93.4618 8.92836C92.7954 8.71063 92.072 8.62927 91.2447 8.62927C90.1637 8.62927 88.896 8.90336 87.997 9.58245C87.3083 10.1024 86.8358 10.8638 86.8358 11.927C86.8358 12.9611 87.2704 13.6824 87.9207 14.1793C88.7864 14.8415 90.0376 15.1165 91.1667 15.2029C91.9441 15.2488 92.4923 15.3524 92.8507 15.5438C93.2372 15.7506 93.4092 16.0515 93.4092 16.4774L93.4088 16.5006C93.399 16.9311 93.1511 17.2865 92.7736 17.5334C92.409 17.7715 91.9213 17.9079 91.415 17.9079L91.353 17.9065C90.7165 17.8947 89.9337 17.7129 89.2201 17.4174C88.6116 17.1661 88.05 16.8297 87.6684 16.4452L86.4997 18.1734C87.2477 18.947 88.025 19.4061 88.8171 19.6724C89.6351 19.9479 90.4726 20.0188 91.3106 20.0188C92.7362 20.0188 93.8238 19.6552 94.5713 19.0724C95.3937 18.432 95.806 17.5234 95.806 16.5438C95.806 15.1434 95.19 14.332 94.331 13.8552C93.456 13.3697 92.3238 13.2224 91.3249 13.157C90.6202 13.1111 90.1022 12.9838 89.7568 12.7743C89.3881 12.5502 89.2116 12.2384 89.2116 11.8384C89.2116 11.4456 89.4086 11.1365 89.7844 10.9284C90.1334 10.7347 90.6411 10.6306 91.2888 10.6306C91.8121 10.6306 92.298 10.6929 92.7522 10.8502C93.1734 10.9961 93.5657 11.2224 93.933 11.5547L95.2586 9.96472ZM101.139 19.6415H103.537V4.36789H101.139V19.6415ZM111.253 10.8524C112.814 10.8524 113.814 11.7465 114.252 12.8897C114.42 13.3324 114.506 13.8124 114.506 14.2906C114.506 14.7693 114.42 15.2497 114.252 15.692C113.814 16.8356 112.814 17.7297 111.253 17.7297C110.313 17.7297 109.467 17.3865 108.867 16.7579C108.303 16.1665 107.957 15.3243 107.957 14.2797C107.957 13.2365 108.302 12.4006 108.865 11.8147C109.465 11.1902 110.312 10.8524 111.253 10.8524ZM114.329 10.3893C114.038 9.87062 113.565 9.44516 112.994 9.14834C112.408 8.84425 111.719 8.6738 111.014 8.6738L110.961 8.67334C109.445 8.6738 108.094 9.15107 107.121 10.082C106.149 11.0129 105.55 12.4002 105.537 14.2211V14.3424C105.55 16.1961 106.122 17.6056 107.075 18.5497C108.026 19.4924 109.36 19.9743 110.896 19.9743L110.946 19.9747C111.585 19.9633 112.362 19.7765 113.034 19.4043C113.583 19.0997 114.061 18.6697 114.325 18.112L114.549 18.1543L114.67 19.6415H116.946V8.94062H114.629L114.549 10.3356L114.329 10.3893ZM127.875 8.94063L125.947 13.6606L124.838 16.6747L124.616 16.6711L123.593 13.5865L121.989 8.94063H119.157L123.397 19.5861L121.446 24.2143H124.106L130.556 8.94063H127.875ZM134.084 12.982C134.282 12.2638 134.674 11.7188 135.196 11.3483C135.746 10.9583 136.439 10.7633 137.201 10.7633C138.007 10.7633 138.698 10.9579 139.207 11.3474C139.697 11.722 140.015 12.2733 140.104 13.0002L140.12 13.1352H134.042L134.084 12.982ZM142.426 15.1361C142.452 14.8233 142.465 14.5197 142.465 14.2247C142.465 12.4943 142.015 11.1638 141.215 10.2347C140.416 9.30789 139.262 8.77562 137.853 8.64107C137.617 8.6188 137.371 8.60744 137.114 8.60744C135.427 8.60744 134.043 9.1788 133.076 10.1497C132.086 11.1447 131.53 12.5611 131.53 14.2133C131.53 15.9524 132.079 17.3952 133.088 18.3938C134.077 19.3724 135.512 19.9302 137.31 19.9302C138.153 19.9302 139.054 19.7743 139.88 19.4565C140.589 19.1838 141.243 18.7911 141.758 18.2761L140.226 16.7343C139.926 17.0147 139.506 17.2411 139.046 17.4038C138.493 17.6006 137.88 17.7074 137.353 17.7074C136.417 17.7074 135.652 17.4674 135.092 17.0593C134.495 16.6243 134.131 16.0002 134.037 15.272L134.02 15.1361H142.426ZM147.663 11.1061V8.94062H145.07V19.6415H147.663V14.9679C147.663 14.8756 147.666 14.7824 147.671 14.6883C147.731 13.7056 148.108 12.8765 148.749 12.2924C149.387 11.7106 150.285 11.3738 151.39 11.3738C151.466 11.3738 151.544 11.3752 151.624 11.3788V8.83153C150.79 8.85835 150.055 9.06335 149.434 9.4388C148.789 9.82926 148.266 10.4065 147.885 11.1611L147.663 11.1061ZM52.7428 9.96518C52.1637 9.46473 51.5789 9.13473 50.9469 8.92791C50.2805 8.70972 49.5579 8.62791 48.731 8.62791C47.6492 8.62791 46.3811 8.90245 45.4815 9.58154C44.7929 10.102 44.3204 10.8638 44.3204 11.9275C44.3204 12.9606 44.755 13.6815 45.4049 14.1784C46.271 14.8402 47.5213 15.1152 48.6499 15.2015C49.4286 15.2488 49.9774 15.3529 50.3357 15.5447C50.7218 15.7515 50.8934 16.0525 50.8934 16.4784L50.8925 16.5011C50.884 16.9311 50.6353 17.2875 50.2559 17.5343C49.8904 17.7729 49.401 17.9088 48.8933 17.9088L48.8362 17.9084C48.2006 17.8952 47.417 17.7129 46.7033 17.417C46.0953 17.1656 45.5341 16.8297 45.1526 16.4452L43.9829 18.1738C44.7314 18.9479 45.5096 19.407 46.3022 19.6734C47.1201 19.9484 47.9572 20.0188 48.7943 20.0188C50.2203 20.0188 51.3079 19.6552 52.0563 19.0725C52.8787 18.4315 53.2915 17.5229 53.2915 16.5434C53.2915 15.1434 52.675 14.3315 51.8161 13.8552C50.9411 13.3697 49.8089 13.2225 48.8099 13.1575C48.1048 13.1111 47.5864 12.9829 47.24 12.7729C46.8718 12.5488 46.6953 12.237 46.6953 11.837C46.6953 11.4447 46.8923 11.1361 47.2685 10.9279C47.618 10.7343 48.1262 10.6302 48.7743 10.6302C49.2971 10.6302 49.7821 10.6925 50.2363 10.8502C50.6571 10.9961 51.0494 11.2229 51.4176 11.5556L52.7428 9.96518Z" fill="#22303D"/>
</svg>
