<?xml version="1.0" encoding="utf-8"?>
<!-- Generator: Adobe Illustrator 24.0.2, SVG Export Plug-In . SVG Version: 6.00 Build 0)  -->
<svg version="1.1" id="Capa_1" xmlns="http://www.w3.org/2000/svg" xmlns:xlink="http://www.w3.org/1999/xlink" x="0px" y="0px"
	 viewBox="0 0 340.19 65.96" style="enable-background:new 0 0 340.19 65.96;" xml:space="preserve">
<style type="text/css">
	.st0{fill:#4CB58E;}
	.st1{fill:#22303D;}
</style>
<path class="st0" d="M36.34,19.47c0.83-0.48,1.7-0.85,2.58-1.09c0.89-0.25,1.81-0.37,2.73-0.37s1.83,0.12,2.73,0.37
	c0.88,0.24,1.74,0.6,2.58,1.09l2.49,1.44L59.68,15L44.24,6.09c-0.42-0.24-0.85-0.43-1.29-0.55c-0.43-0.12-0.87-0.18-1.3-0.18
	c-0.44,0-0.88,0.06-1.31,0.19c-0.45,0.13-0.89,0.31-1.32,0.56L8.05,23.99L39.07,41.9c0.42,0.24,0.85,0.42,1.28,0.54
	c0.43,0.12,0.87,0.18,1.3,0.18c0.44,0,0.88-0.06,1.31-0.19c0.45-0.13,0.89-0.31,1.31-0.56l39-22.52v6.18L46.95,46.5
	c-0.83,0.48-1.7,0.84-2.58,1.09c-0.9,0.25-1.81,0.37-2.71,0.38c-0.91,0-1.82-0.12-2.71-0.36c-0.87-0.24-1.73-0.6-2.57-1.08
	L5.36,28.62v11.81l33.7,19.45c0.42,0.24,0.85,0.43,1.29,0.55c0.43,0.12,0.87,0.18,1.3,0.18c0.44,0,0.88-0.06,1.31-0.19
	c0.45-0.13,0.89-0.31,1.31-0.56l38.99-22.52v6.18L46.94,64.49c-0.82,0.48-1.69,0.84-2.58,1.09s-1.8,0.37-2.71,0.38
	c-0.91,0-1.82-0.12-2.71-0.36c-0.88-0.24-1.74-0.6-2.57-1.08L0,43.52V22.44L36.33,1.47c0.83-0.48,1.7-0.84,2.58-1.09
	c0.89-0.25,1.8-0.37,2.71-0.38c0.91,0,1.82,0.12,2.71,0.36c0.88,0.24,1.74,0.6,2.57,1.08l23.46,13.55L49.43,27.07l-5.16-2.98
	c-0.42-0.24-0.85-0.42-1.29-0.54s-0.89-0.18-1.33-0.18c-0.45,0-0.9,0.06-1.33,0.18s-0.87,0.3-1.29,0.55l-5.17,2.98l-5.35-3.09
	L36.34,19.47L36.34,19.47z"/>
<path class="st1" d="M118.35,21.93c-1.3-1.1-2.61-1.83-4.03-2.28c-1.49-0.48-3.12-0.66-4.97-0.66c-2.43,0-5.27,0.6-7.29,2.1
	c-1.55,1.14-2.61,2.82-2.61,5.16c0,2.27,0.98,3.86,2.43,4.95c1.94,1.46,4.75,2.06,7.28,2.25c1.75,0.1,2.98,0.33,3.78,0.75
	c0.87,0.45,1.25,1.12,1.25,2.05v0.05c-0.02,0.95-0.58,1.73-1.43,2.27c-0.82,0.52-1.92,0.82-3.06,0.82h-0.13
	c-1.43-0.03-3.18-0.43-4.79-1.08c-1.36-0.55-2.62-1.29-3.48-2.14l-2.62,3.8c1.68,1.7,3.43,2.71,5.2,3.3
	c1.84,0.61,3.71,0.76,5.59,0.76c3.2,0,5.64-0.8,7.32-2.08c1.84-1.41,2.77-3.41,2.77-5.56c0-3.08-1.38-4.86-3.31-5.91
	c-1.96-1.07-4.5-1.39-6.74-1.54c-1.58-0.1-2.75-0.38-3.52-0.85c-0.83-0.49-1.22-1.18-1.22-2.06c0-0.86,0.44-1.54,1.29-2
	c0.78-0.43,1.92-0.66,3.38-0.66c1.17,0,2.26,0.14,3.28,0.48c0.94,0.32,1.82,0.82,2.65,1.55L118.35,21.93L118.35,21.93z
	 M331.29,24.44v-4.76h-5.82v23.54h5.82V32.94c0-0.2,0.01-0.41,0.02-0.61c0.13-2.16,0.98-3.99,2.42-5.27
	c1.43-1.28,3.45-2.02,5.93-2.02c0.17,0,0.35,0,0.53,0.01v-5.6c-1.87,0.06-3.52,0.51-4.91,1.34c-1.45,0.86-2.62,2.13-3.47,3.79
	L331.29,24.44L331.29,24.44z M319.55,33.31c0.06-0.69,0.09-1.36,0.09-2c0-3.81-1.01-6.73-2.8-8.78c-1.79-2.04-4.38-3.21-7.54-3.51
	c-0.53-0.05-1.08-0.07-1.66-0.07c-3.79,0-6.89,1.26-9.06,3.39c-2.22,2.19-3.47,5.3-3.47,8.94c0,3.83,1.23,7,3.5,9.2
	c2.22,2.15,5.44,3.38,9.47,3.38c1.89,0,3.91-0.34,5.76-1.04c1.59-0.6,3.06-1.46,4.21-2.6l-3.44-3.39c-0.67,0.62-1.62,1.11-2.65,1.47
	c-1.24,0.43-2.62,0.67-3.8,0.67c-2.1,0-3.82-0.53-5.07-1.43c-1.34-0.96-2.16-2.33-2.37-3.93l-0.04-0.3L319.55,33.31L319.55,33.31z
	 M300.83,28.57c0.44-1.58,1.32-2.78,2.49-3.59c1.23-0.86,2.79-1.29,4.5-1.29c1.81,0,3.36,0.43,4.5,1.28
	c1.1,0.82,1.81,2.04,2.01,3.64l0.04,0.3h-13.64L300.83,28.57L300.83,28.57z M286.9,19.68l-4.33,10.38l-2.49,6.63l-0.5-0.01
	l-2.3-6.79l-3.6-10.22h-6.35l9.51,23.42l-4.38,10.18h5.97l14.47-33.6h-6V19.68z M256.51,22.87c-0.65-1.14-1.71-2.08-3-2.73
	c-1.31-0.67-2.86-1.04-4.44-1.04h-0.12c-3.4,0-6.43,1.05-8.61,3.1c-2.18,2.05-3.52,5.1-3.55,9.11v0.27
	c0.03,4.08,1.31,7.18,3.45,9.26c2.13,2.07,5.13,3.14,8.57,3.14h0.11c1.43-0.03,3.18-0.44,4.68-1.26c1.23-0.67,2.3-1.62,2.9-2.84
	l0.5,0.09l0.27,3.27h5.11V19.7h-5.2L257,22.77L256.51,22.87L256.51,22.87z M249.61,23.89c3.5,0,5.74,1.97,6.73,4.48
	c0.38,0.97,0.57,2.03,0.57,3.08s-0.19,2.11-0.57,3.08c-0.98,2.52-3.22,4.48-6.73,4.48c-2.11,0-4.01-0.75-5.35-2.14
	c-1.27-1.3-2.04-3.15-2.04-5.45c0-2.29,0.77-4.13,2.04-5.42C245.6,24.63,247.5,23.89,249.61,23.89L249.61,23.89z M226.92,9.62v33.6
	h5.38V9.62H226.92L226.92,9.62z M213.73,21.93c-1.3-1.1-2.61-1.83-4.03-2.28c-1.5-0.48-3.12-0.66-4.97-0.66
	c-2.42,0-5.27,0.6-7.29,2.1c-1.54,1.14-2.6,2.82-2.6,5.16c0,2.27,0.98,3.86,2.43,4.95c1.94,1.46,4.75,2.06,7.28,2.25
	c1.74,0.1,2.97,0.33,3.78,0.75c0.87,0.45,1.25,1.12,1.25,2.05v0.05c-0.02,0.95-0.58,1.73-1.42,2.27c-0.82,0.52-1.91,0.82-3.05,0.82
	h-0.14c-1.43-0.03-3.18-0.43-4.79-1.08c-1.37-0.55-2.63-1.29-3.48-2.14l-2.62,3.8c1.68,1.7,3.42,2.71,5.2,3.3
	c1.83,0.61,3.71,0.76,5.59,0.76c3.2,0,5.64-0.8,7.32-2.08c1.84-1.41,2.77-3.41,2.77-5.56c0-3.08-1.38-4.87-3.31-5.91
	c-1.96-1.07-4.5-1.39-6.74-1.54c-1.58-0.1-2.74-0.38-3.52-0.84c-0.83-0.49-1.22-1.18-1.22-2.06c0-0.86,0.44-1.54,1.28-2
	c0.78-0.43,1.92-0.66,3.38-0.66c1.17,0,2.26,0.14,3.28,0.48c0.95,0.32,1.83,0.82,2.65,1.55L213.73,21.93L213.73,21.93z
	 M190.76,33.31c0.06-0.69,0.09-1.36,0.09-2c0-3.81-1.01-6.73-2.8-8.78c-1.79-2.04-4.38-3.21-7.54-3.51
	c-0.53-0.05-1.08-0.07-1.66-0.07c-3.79,0-6.89,1.26-9.06,3.39c-2.22,2.19-3.47,5.3-3.47,8.94c0,3.83,1.23,7,3.5,9.2
	c2.22,2.15,5.44,3.38,9.47,3.38c1.89,0,3.91-0.34,5.76-1.04c1.59-0.6,3.06-1.46,4.21-2.6l-3.44-3.39c-0.67,0.62-1.62,1.11-2.65,1.47
	c-1.24,0.43-2.62,0.67-3.8,0.67c-2.1,0-3.82-0.53-5.07-1.43c-1.34-0.96-2.16-2.33-2.37-3.93l-0.04-0.3L190.76,33.31L190.76,33.31z
	 M172.04,28.57c0.44-1.58,1.32-2.78,2.49-3.59c1.23-0.86,2.79-1.29,4.5-1.29c1.81,0,3.36,0.43,4.5,1.28
	c1.1,0.82,1.81,2.04,2.01,3.64l0.04,0.3h-13.64L172.04,28.57L172.04,28.57z M155.03,9.62v33.6h5.38V9.62H155.03L155.03,9.62z
	 M142.96,22.86c-0.65-1.14-1.71-2.07-3-2.73c-1.31-0.67-2.86-1.04-4.44-1.04h-0.12c-3.4,0-6.43,1.05-8.61,3.1
	c-2.18,2.05-3.52,5.1-3.55,9.1v0.26c0.03,4.08,1.31,7.19,3.45,9.27c2.13,2.08,5.13,3.14,8.58,3.14h0.11
	c1.43-0.03,3.18-0.44,4.69-1.26c1.23-0.67,2.3-1.61,2.9-2.84l0.5,0.09l0.27,3.27h5.11V19.68h-5.2l-0.18,3.07L142.96,22.86
	L142.96,22.86z M136.06,23.89c3.5,0,5.75,1.97,6.73,4.48c0.38,0.97,0.57,2.03,0.57,3.08s-0.19,2.11-0.57,3.08
	c-0.98,2.52-3.23,4.48-6.73,4.48c-2.11,0-4.01-0.75-5.35-2.14c-1.27-1.3-2.04-3.15-2.04-5.45c0-2.3,0.77-4.13,2.04-5.42
	C132.05,24.63,133.95,23.89,136.06,23.89L136.06,23.89z"/>
</svg>
