<?xml version="1.0" standalone="no"?>
<!DOCTYPE svg PUBLIC "-//W3C//DTD SVG 20010904//EN"
 "http://www.w3.org/TR/2001/REC-SVG-20010904/DTD/svg10.dtd">
<svg version="1.0" xmlns="http://www.w3.org/2000/svg"
 width="300.000000pt" height="300.000000pt" viewBox="0 0 300.000000 300.000000"
 preserveAspectRatio="xMidYMid meet">
<metadata>
Created by potrace 1.14, written by Peter Selinger 2001-2017
</metadata>
<g transform="translate(0.000000,300.000000) scale(0.100000,-0.100000)"
fill="#000000" stroke="none">
<path d="M1249 2843 c-4 -138 -33 -310 -66 -393 -4 -8 -7 -17 -8 -20 -1 -3 -5
-14 -9 -25 -44 -128 -202 -372 -364 -564 -294 -347 -391 -605 -358 -950 4 -41
12 -83 17 -93 5 -10 7 -18 4 -18 -12 0 64 -172 107 -239 80 -125 254 -249 402
-287 25 -6 25 -6 -18 87 -41 89 -89 225 -101 286 -29 158 -20 314 27 441 55
151 104 234 291 492 70 96 130 180 135 185 4 6 11 17 15 25 4 8 17 31 29 50
107 175 157 357 145 528 -7 97 -20 144 -66 246 -30 68 -151 259 -171 271 -6 3
-10 -6 -11 -22z"/>
<path d="M1809 2323 c0 -27 -2 -55 -3 -63 -2 -8 -6 -36 -9 -62 -9 -74 -37
-175 -72 -263 -64 -158 -138 -275 -342 -546 -201 -266 -252 -365 -257 -501 -8
-212 63 -405 199 -543 79 -80 121 -110 111 -78 -19 66 -22 269 -5 378 32 210
149 430 334 629 78 83 189 255 224 346 39 100 50 167 46 275 -5 104 -8 127
-35 199 -33 87 -156 274 -182 276 -5 0 -8 -21 -9 -47z"/>
<path d="M2309 1832 c-2 -217 -97 -429 -304 -683 -188 -230 -278 -367 -299
-454 -15 -60 -17 -71 -17 -145 0 -93 22 -170 67 -237 35 -51 64 -74 64 -50 0
35 169 331 209 367 3 3 22 25 42 50 40 49 51 61 184 205 193 208 248 325 244
513 -4 155 -43 283 -121 399 -53 78 -68 85 -69 35z"/>
</g>
</svg>
