<svg width="74" height="17" viewBox="0 0 74 17" fill="none" xmlns="http://www.w3.org/2000/svg">
<g clip-path="url(#clip0)">
<path fill-rule="evenodd" clip-rule="evenodd" d="M2.83829 7.20754L5.07364 9.37675C5.61369 9.93093 5.61369 10.7985 5.07364 11.353C4.50854 11.8833 3.59964 11.8833 3.05924 11.353L0.824245 9.15993C0.283845 8.62965 0.283845 7.73782 0.824245 7.20754C1.389 6.65336 2.29789 6.65336 2.83824 7.20754H2.83829ZM5.09799 4.99023L7.33299 7.15944C7.87344 7.71362 7.87344 8.58155 7.33299 9.13568C6.76829 9.66596 5.88369 9.66596 5.31934 9.13568L3.10864 6.94262C2.54354 6.41239 2.54354 5.52056 3.10864 4.99023C3.64869 4.4361 4.55764 4.4361 5.09799 4.99023ZM11.6806 7.25598L13.916 9.44904C14.456 9.97898 14.456 10.8708 13.916 11.401C13.3509 11.9556 12.442 11.9556 11.9016 11.401L9.66659 9.23188C9.12619 8.6777 9.12619 7.81011 9.66659 7.25598C10.2313 6.7257 11.1402 6.7257 11.6806 7.25598ZM7.55404 4.96623L9.76469 2.79702C10.3298 2.26674 11.2137 2.26674 11.7791 2.79702C12.3191 3.3273 12.3191 4.21913 11.7791 4.77365L9.54374 6.94247C9.00334 7.49665 8.09444 7.49665 7.55404 6.94247C6.98929 6.41224 6.98929 5.52041 7.55404 4.96623ZM13.9404 5.03833L16.1754 7.20754C16.7158 7.76167 16.7158 8.6535 16.1754 9.18378C15.6106 9.73796 14.7264 9.73796 14.1613 9.18378L11.9506 7.01496C11.3859 6.46078 11.3859 5.56895 11.9506 5.03833C12.4911 4.50839 13.4 4.50839 13.9404 5.03833ZM5.26979 2.74887L7.50519 0.579662C8.04559 0.0255292 8.95419 0.0255292 9.51924 0.579662C10.0596 1.10994 10.0596 2.00182 9.51924 2.53166L7.28389 4.72512C6.74349 5.25539 5.83459 5.25539 5.26984 4.72512C4.72944 4.17098 4.72944 3.30306 5.26984 2.74887H5.26979ZM7.52954 13.739L9.74024 11.5456C10.305 11.0156 11.1895 11.0156 11.7542 11.5456C12.2947 12.1001 12.2947 12.9677 11.7542 13.5218L9.51924 15.6914C8.97884 16.2456 8.06994 16.2456 7.52954 15.6914C6.96444 15.1611 6.96444 14.2693 7.52954 13.739ZM5.26979 11.5217L7.48049 9.32822C8.04559 8.79833 8.92944 8.79833 9.49454 9.32822C10.0349 9.88274 10.0349 10.7504 9.49454 11.3045L7.25954 13.4741C6.71914 14.0282 5.81024 14.0282 5.26984 13.4741C4.70509 12.9438 4.70509 12.052 5.26984 11.5217H5.26979ZM70.335 11.9794C70.1631 12.1966 69.7455 12.7508 69.0579 12.7508C68.4928 12.7508 68.1737 12.4376 68.1737 11.8107C68.1737 10.7987 69.5246 10.5338 70.335 10.2684V11.9794ZM66.1102 3.95377C66.1102 3.47169 65.717 3.06194 65.2261 3.06194C64.7347 3.06194 64.3171 3.47164 64.3171 3.95377C64.3171 4.4359 64.7347 4.82141 65.2261 4.82141C65.717 4.82141 66.1102 4.43595 66.1102 3.95377ZM67.5348 7.88245C67.0682 8.09927 66.7244 8.50897 66.7244 9.08778C66.7244 9.30422 66.8469 9.40085 66.9944 9.40085C67.2154 9.40085 68.0014 9.23217 68.0505 8.84667C68.0996 8.02689 68.3209 7.81006 69.1808 7.81006C69.8193 7.81006 70.335 8.14776 70.335 8.99115V9.7863L68.5172 10.4132C67.4611 10.7745 66.5278 11.1122 66.5278 12.2447C66.5278 12.5821 66.6259 12.847 66.7735 13.0881H66.7488C66.3806 13.0881 66.0365 13.0881 66.0365 12.7265V6.96633L65.8893 6.84579C65.5698 6.96633 65.2013 7.15964 64.8575 7.28017C64.489 7.4007 63.9977 7.56899 63.5314 7.68953V8.02689C63.7033 8.07537 63.8749 8.12352 64.0471 8.17166C64.3662 8.26829 64.3909 8.34034 64.3909 8.58136V12.6545C64.3909 13.0881 64.0718 13.0881 63.6292 13.0881H63.5314V13.5221C64.0962 13.4739 64.6857 13.4497 65.2998 13.4497C65.8398 13.4497 66.405 13.4739 66.9697 13.5221V13.3052C67.2648 13.5944 67.6824 13.7389 68.1243 13.7389C69.0579 13.7389 69.7208 13.2086 70.384 12.582C70.4335 13.2568 70.7772 13.7389 71.4892 13.7389C72.2015 13.7389 72.5947 13.3534 73.037 12.8232L72.8404 12.5582C72.7419 12.6545 72.5456 12.7508 72.4228 12.7508C72.0052 12.7508 71.9805 12.2929 71.9805 11.6902V8.75009C71.9805 7.49661 71.2929 6.84579 69.9912 6.84579C68.6802 7.12924 67.5348 7.88245 67.5348 7.88245ZM58.6435 8.21981V12.1723C58.8154 12.5097 59.4296 13.2086 60.1662 13.2086C61.5417 13.2086 61.8365 11.8108 61.8365 10.7024C61.8365 9.42475 61.2223 7.81006 59.8468 7.81006C59.3558 7.81006 58.9873 8.00298 58.6435 8.21976V8.21981ZM56.9976 12.3895V4.12245C56.6785 3.97806 56.3343 3.88177 56.0152 3.76085V3.52017C56.8504 3.25486 57.6855 2.94141 58.4716 2.53166L58.6435 2.62829V7.76196C59.3558 7.23169 59.9209 6.84584 60.8541 6.84584C62.6716 6.84584 63.6292 8.26839 63.6292 10.0036C63.6292 12.2209 61.9593 13.7389 59.9452 13.7389C59.0854 13.7389 58.275 13.4979 57.8327 13.1848C57.6365 13.3053 57.3661 13.5221 57.1942 13.7389L56.9485 13.5945C56.9975 13.1848 56.9975 12.799 56.9975 12.3896L56.9976 12.3895ZM45.1342 13.5221C45.6746 13.4739 46.264 13.4497 46.8535 13.4497C47.4186 13.4497 47.959 13.4739 48.5481 13.5221V13.0881H48.3766C48.0328 13.0881 47.6396 13.0642 47.6396 12.6302V8.43697C47.959 8.17166 48.5238 7.90635 48.9657 7.90635C49.7027 7.90635 50.0955 8.26829 50.0955 9.08778V12.6302C50.0955 13.0161 49.7765 13.0881 49.3833 13.0881H49.2114V13.5221C49.8008 13.4739 50.3659 13.4497 50.9554 13.4497C51.4958 13.4497 52.0605 13.4739 52.6013 13.5221V13.0881H52.4047C52.0119 13.0881 51.7415 13.0161 51.7415 12.6302V8.34029C52.0853 8.14781 52.6257 7.90635 53.0676 7.90635C53.8046 7.90635 54.1974 8.26829 54.1974 9.08778V12.6545C54.1974 13.0161 53.9031 13.0881 53.5346 13.0881H53.3132V13.5221C53.9031 13.4739 54.4678 13.4497 55.0573 13.4497C55.5977 13.4497 56.1381 13.4739 56.7028 13.5221V13.0881H56.5066C56.1137 13.0881 55.8434 13.0161 55.8434 12.6545V8.70155C55.8434 7.44846 55.0573 6.84579 54.0012 6.84579C53.2395 6.84579 52.38 7.44846 51.6433 7.90635C51.3482 7.15964 50.7097 6.84579 49.8993 6.84579C49.1132 6.84579 48.2534 7.4727 47.6396 7.88245V6.96633L47.4673 6.84579C47.1482 6.96633 46.8044 7.15964 46.4607 7.28017C46.0674 7.4007 45.5761 7.56899 45.1342 7.68953V8.02689C45.3061 8.07537 45.4533 8.12352 45.6502 8.17166C45.9693 8.26829 45.994 8.34034 45.994 8.58136V12.6545C45.994 13.0881 45.6502 13.0881 45.2327 13.0881H45.1342V13.5221V13.5221ZM38.2322 12.0518C38.2322 13.0161 38.7235 13.7389 40.0253 13.7389C40.8604 13.7389 41.6955 13.1123 42.3341 12.582V13.6184L42.4816 13.7389C43.1936 13.4497 44.0534 13.3292 44.8147 13.1847V12.847H44.3728C44.0534 12.847 43.98 12.7265 43.98 12.3414V8.21981C43.98 7.76192 43.98 7.32793 44.0534 6.91857L43.9062 6.84584C43.2182 7.1111 41.9903 7.20739 41.2532 7.25593V7.59324L41.9902 7.8343C42.285 7.93059 42.3341 7.97874 42.3341 8.29181V11.9794C41.9903 12.2447 41.4989 12.5821 40.9585 12.5821C40.2709 12.5821 39.8777 12.2447 39.8777 11.401V8.21981C39.8777 7.76192 39.9268 7.32793 39.9515 6.91857L39.8043 6.84584C39.092 7.06301 38.1584 7.20739 37.2989 7.25593V7.59324L37.9127 7.76196C38.1831 7.8343 38.2322 7.93059 38.2322 8.14776V12.0518ZM35.1373 12.6302V4.48405C35.1373 4.17098 35.0886 4.02582 34.7445 3.90563C34.5969 3.83324 34.425 3.76085 34.2778 3.71309V3.3754C34.9163 3.20672 35.899 2.84546 36.6113 2.53166L36.7828 2.6522V12.6302C36.7828 13.0403 37.127 13.0881 37.5446 13.0881H37.6918V13.5221C37.127 13.4739 36.5866 13.4497 36.0219 13.4497C35.4077 13.4497 34.8179 13.4739 34.2779 13.5221V13.0881C34.7445 13.0881 35.1373 13.0881 35.1373 12.6302ZM27.3268 10.2684C27.3268 12.2686 28.7513 13.7389 30.8392 13.7389C32.8038 13.7389 34.3516 12.1484 34.3516 10.1961C34.3516 8.17166 32.9514 6.84579 30.8392 6.84579C28.7757 6.84579 27.3268 8.34034 27.3268 10.2684ZM30.7901 7.35217C32.2147 7.35217 32.5832 9.49748 32.5832 10.5337C32.5832 11.835 32.2881 13.2087 30.9126 13.2087C29.4884 13.2087 29.1199 11.5215 29.1199 10.3166C29.1199 9.15978 29.2427 7.35222 30.7901 7.35222V7.35217ZM27.2039 6.38829C27.1058 5.56885 27.0811 4.7736 27.0811 3.97806C25.7056 3.76085 25.1408 3.25486 23.4458 3.25486C20.4247 3.25486 17.7722 5.1352 17.7722 8.34034C17.7722 11.9555 20.2038 13.7389 23.5196 13.7389C24.8457 13.7389 26.025 13.4497 26.8601 13.0881C26.9335 12.2929 27.032 11.5215 27.2286 10.7506L26.8111 10.7024C26.4426 12.1242 25.4108 13.0881 23.8391 13.0881C21.0633 13.0881 19.8106 10.6543 19.8106 8.26829C19.8106 5.73753 21.0633 3.88177 23.4706 3.88177C25.6808 3.88177 26.3444 5.03857 26.7616 6.43644L27.2039 6.38829Z" fill="white"/>
</g>
<defs>
<clipPath id="clip0">
<rect x="0.418701" y="0.163574" width="73" height="16" fill="white"/>
</clipPath>
</defs>
</svg>
