<svg width="41" height="35" viewBox="0 0 41 35" fill="none" xmlns="http://www.w3.org/2000/svg">
<path fill-rule="evenodd" clip-rule="evenodd" d="M5.46983 28.994C5.21182 28.5948 4.75734 28.3594 4.01896 28.3594H3.99232C3.20786 28.3594 2.75173 28.6274 2.50674 29.0505C2.26159 29.4728 2.22284 30.0375 2.22119 30.6411C2.22119 31.3306 2.26887 31.9216 2.52045 32.3527C2.76949 32.7829 3.22561 33.0341 3.99232 33.0341C4.55598 33.0341 4.99111 32.8728 5.27651 32.5912C5.57577 32.3112 5.72859 31.9065 5.7472 31.4165V31.3633H4.43543V31.4205C4.43543 31.5971 4.41438 31.7848 4.34889 31.9208C4.28011 32.0576 4.16854 32.1436 4.00519 32.1436C3.86604 32.1436 3.79172 32.1029 3.72458 32.033C3.53375 31.8285 3.50787 31.3379 3.50787 30.9553H5.76829V30.9059C5.76829 30.7914 5.78116 30.6817 5.78116 30.5752C5.78116 29.9492 5.71478 29.4029 5.45522 29.0052L5.46978 28.994L5.46983 28.994ZM4.55843 30.2021H3.46981V30.1544C3.46981 29.9659 3.46981 29.725 3.53859 29.5278C3.5944 29.3568 3.6995 29.2175 3.88948 29.1769C3.92838 29.1642 3.96719 29.1642 4.01332 29.1642C4.06021 29.1642 4.10135 29.1642 4.14021 29.177C4.32864 29.2175 4.43378 29.3567 4.48885 29.5278C4.55593 29.725 4.55838 29.9658 4.55838 30.1544V30.2022L4.55843 30.2021ZM9.14382 32.1451C9.04033 32.1451 8.96351 32.1284 8.90361 32.0894C8.81787 32.0305 8.75074 31.9097 8.70795 31.6655C8.66904 31.4246 8.65288 31.073 8.65288 30.5743V30.5552C8.65288 30.1106 8.66585 29.7734 8.73378 29.5612C8.77019 29.4514 8.81708 29.3751 8.88092 29.3273C8.94326 29.2796 9.02491 29.2526 9.14377 29.2526C9.31684 29.2526 9.42358 29.2994 9.49889 29.4179C9.57725 29.5372 9.61611 29.7441 9.6169 30.0629V30.1154H10.9077V30.0629C10.9077 29.4824 10.7483 29.0537 10.4458 28.7705C10.1393 28.489 9.69691 28.3594 9.14457 28.3594H9.1317C8.34644 28.3594 7.89111 28.6275 7.64611 29.0506C7.40187 29.4728 7.36147 30.0375 7.36147 30.6411C7.36147 31.3306 7.4091 31.9215 7.65898 32.3527C7.90892 32.7822 8.36419 33.0342 9.1309 33.0342H9.14382C9.70504 33.0342 10.1498 32.9038 10.4579 32.6136C10.7645 32.324 10.923 31.8803 10.923 31.2774V31.2249H9.63471V31.2774C9.63471 31.5573 9.58947 31.7792 9.50618 31.9263C9.42203 32.0704 9.30792 32.1419 9.14382 32.1435" fill="white"/>
<mask id="mask0" mask-type="alpha" maskUnits="userSpaceOnUse" x="0" y="26" width="2" height="7">
<path d="M0.582031 26.9775H1.74654V32.9458H0.582031V26.9775Z" fill="white"/>
</mask>
<g mask="url(#mask0)">
<path fill-rule="evenodd" clip-rule="evenodd" d="M1.74654 32.9457V26.9775H0.582031V32.9458H0.636297L1.74654 32.9457Z" fill="white"/>
</g>
<path fill-rule="evenodd" clip-rule="evenodd" d="M13.084 28.3592C12.2988 28.3592 11.8434 28.6272 11.5992 29.0487C11.3525 29.4727 11.313 30.0381 11.313 30.6409C11.313 31.3306 11.3614 31.9215 11.6114 32.3526C11.8605 32.7828 12.3157 33.0341 13.084 33.0341H13.1107C13.8782 33.0341 14.3343 32.7821 14.5834 32.3517C14.8301 31.9215 14.8793 31.3306 14.8793 30.6409C14.8793 30.0381 14.8373 29.4727 14.5948 29.0487C14.3505 28.6272 13.8952 28.3592 13.1107 28.3592H13.084ZM13.5531 29.5379C13.6274 29.7701 13.638 30.1136 13.638 30.571C13.638 31.2406 13.6105 31.6479 13.5297 31.8881C13.4479 32.1284 13.3089 32.2022 13.0913 32.2022C12.8729 32.2022 12.7339 32.129 12.6521 31.8881C12.5697 31.6479 12.5422 31.2406 12.5422 30.571C12.5422 30.1136 12.5559 29.7701 12.6263 29.5379C12.6991 29.3063 12.839 29.1895 13.0913 29.1904C13.3444 29.1904 13.4852 29.3063 13.5571 29.5379H13.5531ZM16.7871 28.3679H16.6998C16.3456 28.3679 15.9679 28.5246 15.7067 28.8229C15.6491 28.8872 15.5981 28.957 15.5546 29.0313C15.3105 29.4543 15.2716 30.019 15.2684 30.6218C15.2684 31.3115 15.3161 31.9039 15.5684 32.3342C15.7876 32.7072 16.1919 33.0118 16.6829 33.0118C16.7208 33.0118 16.763 33.0118 16.8041 33.0016C17.1243 32.9681 17.3274 32.8488 17.5328 32.6079L17.5465 32.5975V34.3234H18.7459V28.4219H17.6031V28.7918L17.5902 28.779C17.3905 28.5008 17.1179 28.391 16.7872 28.3656L16.7871 28.3679ZM17.5967 30.5551C17.5967 31.2247 17.57 31.632 17.4875 31.8715C17.4067 32.1124 17.2668 32.1863 17.05 32.1863C17.0128 32.1863 16.9764 32.1863 16.9433 32.176C16.7677 32.1522 16.6553 32.0503 16.5881 31.8038C16.5235 31.5587 16.5009 31.165 16.5009 30.5527C16.5009 30.1344 16.5138 29.8099 16.5672 29.5807C16.6246 29.3526 16.7338 29.2166 16.9319 29.1824C16.9684 29.168 17.0063 29.168 17.05 29.168C17.3031 29.168 17.4422 29.2873 17.5175 29.518C17.5886 29.7478 17.599 30.0923 17.599 30.5494L17.5967 30.5551ZM33.2551 28.8658V28.4379H32.0953V32.9403H33.3085V30.3539C33.3085 30.1535 33.3295 29.9228 33.4257 29.747C33.5316 29.5689 33.7234 29.4329 34.16 29.4297H34.3727V28.3425H34.2983C33.5107 28.3289 33.2551 28.8555 33.2551 28.8555L33.2551 28.8658ZM29.8285 28.3528C29.0521 28.3528 28.5944 28.6192 28.3493 29.044C28.1052 29.4664 28.0623 30.0318 28.0623 30.6338C28.0623 31.3218 28.1052 31.9152 28.3607 32.3446C28.605 32.7749 29.0627 33.027 29.8285 33.027H29.8398C30.6056 33.027 31.0634 32.7749 31.319 32.3446C31.5632 31.9152 31.6061 31.3218 31.6061 30.6338C31.6061 30.0318 31.5738 29.4664 31.3295 29.044C31.0845 28.6193 30.6267 28.3528 29.8398 28.3528H29.818H29.8285ZM30.2968 29.5315C30.3713 29.7621 30.3825 30.1073 30.3825 30.563C30.3825 31.2334 30.3606 31.6399 30.2758 31.8809C30.2014 32.1203 30.0526 32.1951 29.8398 32.1951C29.6159 32.1951 29.4775 32.1219 29.4031 31.8809C29.3182 31.6399 29.2859 31.2334 29.2859 30.563C29.2859 30.1073 29.3076 29.7621 29.3716 29.5315C29.446 29.3 29.5843 29.1824 29.8398 29.1824C30.0946 29.1824 30.2329 29.3 30.3072 29.5315H30.2967H30.2968ZM21.6993 29.5633C21.6993 29.4218 21.7195 29.3104 21.7834 29.2444C21.8522 29.1712 21.95 29.1545 22.0494 29.1545C22.1586 29.1545 22.2452 29.1911 22.2994 29.2476C22.3787 29.3287 22.4086 29.4193 22.411 29.7295V29.8067H23.6677C23.6677 29.8067 23.6887 29.6738 23.6887 29.6349C23.6887 29.1903 23.4972 28.8651 23.2165 28.6566C22.9334 28.4483 22.5525 28.3551 22.1611 28.3551C21.7722 28.3551 21.3475 28.4275 21.0127 28.6264C20.6787 28.8212 20.4378 29.1505 20.4378 29.6397C20.4378 30.0016 20.576 30.2672 20.779 30.4636C21.0831 30.7642 21.5287 30.9225 21.8894 31.0951C22.0705 31.181 22.2315 31.2685 22.3414 31.3743C22.4515 31.4809 22.5177 31.5993 22.5177 31.7584C22.5177 32.0559 22.3366 32.1696 22.1142 32.1696C21.9096 32.1696 21.815 32.0996 21.7543 31.9803C21.7106 31.8818 21.7001 31.7902 21.7001 31.597V31.418H20.4369C20.4369 31.418 20.4231 31.5802 20.4231 31.6328V31.6431C20.4231 32.1951 20.5987 32.5498 20.9051 32.7581C21.2141 32.9657 21.6363 33.0254 22.1344 33.027C22.6358 33.027 23.0442 32.8791 23.3281 32.6302C23.6144 32.3812 23.7737 32.0305 23.7737 31.6351C23.7737 31.2701 23.6353 30.9934 23.4331 30.7801C23.1267 30.462 22.6835 30.2775 22.3204 30.109C22.1385 30.0246 21.9759 29.9427 21.8651 29.8536C21.7519 29.7637 21.6969 29.6763 21.6936 29.5657" fill="white"/>
<mask id="mask1" mask-type="alpha" maskUnits="userSpaceOnUse" x="24" y="28" width="4" height="7">
<path d="M24.1777 28.3672H27.6576V34.3268H24.1777V28.3672Z" fill="white"/>
</mask>
<g mask="url(#mask1)">
<path fill-rule="evenodd" clip-rule="evenodd" d="M27.3705 29.0314C27.3277 28.9575 27.2743 28.8873 27.2217 28.8222C26.9661 28.5255 26.5828 28.3672 26.2319 28.3672H26.1469C25.8064 28.3902 25.5404 28.5024 25.3382 28.7808L25.3276 28.7927V28.4245H24.1777V34.3268H25.3803V32.6018L25.4022 32.6121C25.6043 32.8522 25.8064 32.9708 26.1251 33.0034C26.1679 33.0034 26.2107 33.0138 26.2423 33.0138C26.7316 33.0138 27.136 32.7091 27.36 32.3345C27.6156 31.9058 27.6576 31.3132 27.6576 30.6221C27.6576 30.02 27.6156 29.4552 27.3705 29.0314ZM26.3386 31.7984C26.2633 32.045 26.1574 32.146 25.9763 32.1722C25.9447 32.1825 25.9124 32.1825 25.8704 32.1825C25.6569 32.1825 25.5186 32.1086 25.4336 31.8692C25.3487 31.629 25.3277 31.2209 25.3277 30.5505C25.3277 30.0939 25.3382 29.7495 25.4126 29.5181C25.487 29.2882 25.6253 29.1689 25.8704 29.1697C25.9124 29.1697 25.9552 29.1697 25.9973 29.1833C26.189 29.2191 26.2957 29.3527 26.3596 29.5826C26.4129 29.8116 26.4236 30.1361 26.4236 30.5538C26.4236 31.1654 26.4024 31.5598 26.3386 31.8047" fill="white"/>
</g>
<path fill-rule="evenodd" clip-rule="evenodd" d="M35.958 27.1655L35.8731 27.2021L34.7344 27.7716V31.9551C34.7344 32.0974 34.7667 32.3519 34.9366 32.5762C35.1073 32.7989 35.3838 32.9841 35.8731 32.9841C36.3203 32.9841 36.5435 32.9262 36.5435 32.9262V32.0577C36.5435 32.0577 36.4367 32.0943 36.2775 32.0943C36.0963 32.0943 36.0324 32.0505 36.0009 31.9837C35.958 31.9185 35.958 31.8079 35.958 31.6663V29.3519H36.5645V28.438H35.958V27.1655ZM38.2144 28.4381H37.0546V32.9405H38.2144V28.4381ZM38.2144 27.9498V26.9707H37.0546V27.9498H37.1072H38.2144ZM40.3212 28.2981C40.3212 28.1566 40.3212 28.0468 40.3637 27.9808C40.3957 27.914 40.4595 27.8711 40.6404 27.8711C40.8 27.8711 40.9065 27.9075 40.9065 27.9075V27.0391C40.9065 27.0391 40.6829 26.9826 40.236 26.9826C39.7572 26.9826 39.5338 27.1655 39.3634 27.3899C39.1826 27.6133 39.1506 27.8671 39.1506 28.0094V28.4381H38.6187V29.352H39.14V32.9405H40.3212V29.352H40.8639V28.4381H40.3212V28.2981Z" fill="white"/>
<mask id="mask2" mask-type="alpha" maskUnits="userSpaceOnUse" x="15" y="0" width="7" height="3">
<path d="M15.7178 0H21.3723V2.28241H15.7178L15.7178 0Z" fill="white"/>
</mask>
<g mask="url(#mask2)">
<path fill-rule="evenodd" clip-rule="evenodd" d="M18.2511 1.39733C19.1796 1.20527 20.0349 0.703742 20.6578 0C20.9003 0.39417 21.1531 0.782921 21.3724 1.18975C21.2244 1.38541 20.9652 1.48469 20.7569 1.61487C19.7516 2.18198 18.5456 2.43957 17.4034 2.18287C16.7767 2.00904 16.1889 1.69321 15.7178 1.24986C16.5434 1.44833 17.4089 1.5821 18.2512 1.39733H18.2511Z" fill="white"/>
</g>
<path fill-rule="evenodd" clip-rule="evenodd" d="M19.3752 4.21226C19.564 3.1481 20.4193 2.30611 21.4005 1.88916C21.0293 2.205 20.6812 2.57653 20.5378 3.04975C20.3472 3.66059 20.398 4.38979 20.8275 4.8941C21.1709 5.29923 21.6967 5.48943 22.1974 5.63232C23.6303 5.99926 25.1614 5.97373 26.5395 6.55083C27.6143 6.98054 28.3927 7.98917 28.6279 9.09432C28.8157 10.1721 28.577 11.269 28.1854 12.2768C27.6013 13.7779 26.7654 15.1661 25.9194 16.5361C23.8386 19.8287 21.5958 23.0241 19.6583 26.4022C19.6084 26.4887 19.5361 26.5524 19.4427 26.5942C20.3109 24.7027 21.1922 22.8091 21.8624 20.8373C22.5927 18.7582 23.0305 16.5598 22.9537 14.3541C22.8555 13.1179 22.7 11.8625 22.2112 10.7093C21.7078 9.47117 20.8774 8.40612 20.174 7.27726C19.601 6.37162 19.1632 5.29465 19.3751 4.21226" fill="white"/>
<path fill-rule="evenodd" clip-rule="evenodd" d="M21.3743 4.26521C21.0291 3.70087 21.1631 2.97433 21.4816 2.42725C21.4687 3.07268 21.8834 3.68259 22.5147 3.87826C22.4527 4.21968 22.4286 4.56563 22.3656 4.90611C21.9861 4.78588 21.5854 4.62022 21.3743 4.26521ZM14.8514 9.45767C16.2934 9.20559 17.8124 9.60145 19.0111 10.4099C20.8587 11.6743 21.9436 13.8863 21.8954 16.0894C21.924 17.4339 21.6871 18.7675 21.3567 20.0675C20.9966 21.4202 20.5282 22.7511 19.8766 23.9965C19.8414 24.0893 19.7581 24.1421 19.6776 24.1922C20.1969 22.6355 20.6662 21.0224 20.6023 19.3675C20.5607 18.3352 20.3422 17.2437 19.6526 16.4308C19.1018 15.7662 18.1077 15.4531 17.2904 15.8026C16.2583 16.246 15.8242 17.514 16.1102 18.5391C16.1954 18.8987 16.4027 19.2108 16.5878 19.5268C15.3076 18.9269 14.5718 17.5295 14.482 16.1776C14.4153 15.5422 14.5579 14.9169 14.6115 14.2878C14.0757 15.3966 13.7627 16.692 14.1756 17.89C14.5662 19.1808 15.6575 20.0948 16.7767 20.7865C15.2299 20.4616 13.7627 19.5677 12.9056 18.2414C12.329 17.3602 12.1151 16.3015 12.1142 15.2665C12.168 14.6073 12.2456 13.9483 12.4151 13.3074C11.8976 13.9465 11.6884 14.7712 11.5718 15.5659C11.3932 16.9278 11.8402 18.3487 12.7501 19.3875C13.5952 20.3779 14.7503 21.0534 15.9426 21.5659C16.2527 21.7078 16.5979 21.7762 16.8831 21.9682C14.9744 21.7534 13.0482 21.0753 11.6523 19.7371C10.5665 18.7138 9.91492 17.291 9.74364 15.8308C9.57331 14.5045 9.8806 13.1099 10.6647 12.0102C11.6153 10.6293 13.1935 9.73075 14.8514 9.45767ZM26.1607 17.9C30.8657 19.1972 35.0154 22.3561 37.4887 26.4989C33.712 26.509 29.9355 26.508 26.1598 26.4989V17.8991L26.1608 17.9H26.1607ZM3.73535 26.5008C5.38848 23.7944 7.711 21.4831 10.4694 19.8617C11.6588 21.2199 13.3147 22.123 15.0698 22.5617C15.0855 23.8745 15.0698 25.1889 15.079 26.5025H3.7372L3.73535 26.5008Z" fill="white"/>
</svg>
