<svg width="64" height="11" viewBox="0 0 64 11" fill="none" xmlns="http://www.w3.org/2000/svg">
<g clip-path="url(#clip0)">
<path fill-rule="evenodd" clip-rule="evenodd" d="M56.8347 0.439453V4.02119H51.6278V0.439453H49.0562V9.38682H51.6278V5.43945H56.8347V9.38682H59.4062V0.439453H56.8347ZM8.67241 0.439453V4.02119H3.47406V0.439453H0.90625V9.38682H3.47406V5.43945H8.67241V9.38682H11.2562V0.439453H8.67241ZM13.0563 9.38682H15.7562V0.439453H13.0563V9.38682ZM61.2062 9.38682H63.9062V0.439453H61.2062V9.38682ZM17.1062 0.439453V1.93056H20.8049V9.38682H23.3073V1.93056H27.0063V0.439453H17.1062ZM28.8103 0.439453L24.3062 9.38682H27.1232L28.0058 7.38061H32.7574L33.624 9.38682H36.4562L31.9832 0.439453H28.8103ZM30.3889 1.96235L32.1224 5.96024H28.6401L30.3889 1.96235Z" fill="white"/>
<mask id="mask0" mask-type="alpha" maskUnits="userSpaceOnUse" x="36" y="0" width="12" height="10">
<path d="M47.7062 9.81287H36.9062V0.439453H47.7062V9.81287Z" fill="white"/>
</mask>
<g mask="url(#mask0)">
<path fill-rule="evenodd" clip-rule="evenodd" d="M45.0452 3.66635H47.6285C47.5973 2.03077 46.1037 0.469142 42.6331 0.439616C40.0498 0.424721 36.9221 1.42656 36.9063 5.09546C36.8906 8.73514 40.0811 9.86951 42.6331 9.81072C44.9831 9.73672 47.5972 9.11825 47.7062 6.37756L45.1076 6.39214C45.0298 8.10146 43.5825 8.4404 42.6331 8.45498C41.6527 8.45498 39.6452 8.26377 39.6144 5.13993C39.5831 2.19277 41.4192 1.78046 42.6331 1.78046C43.8314 1.79504 45.0298 2.32551 45.0452 3.66635" fill="white"/>
</g>
</g>
<defs>
<clipPath id="clip0">
<rect x="0.90625" y="0.163574" width="63" height="10" fill="white"/>
</clipPath>
</defs>
</svg>
