<svg width="65" height="16" viewBox="0 0 65 16" fill="none" xmlns="http://www.w3.org/2000/svg">
<g clip-path="url(#clip0)">
<path fill-rule="evenodd" clip-rule="evenodd" d="M55.9366 0.663574H56.4699C56.5184 0.767022 56.4699 0.870471 56.5184 1.02564C56.4214 2.57737 56.3244 4.18082 56.2275 5.73254C56.2275 5.93944 56.2275 6.14633 56.1305 6.35323C55.3547 7.80151 54.579 9.24978 53.8032 10.6981C53.6578 10.905 53.4153 11.0084 53.2214 11.1636C52.1547 11.9394 51.1366 12.7153 50.0699 13.4394C49.8759 13.5946 49.682 13.7498 49.4881 13.8532C49.3911 13.6463 49.2941 13.4912 49.1972 13.2843C51.4759 9.04288 53.7063 4.85323 55.9366 0.663574ZM57.1972 0.663574H57.8275C58.2153 1.43944 58.6032 2.16357 59.0396 2.93944C60.2517 5.2153 61.5123 7.54288 62.7244 9.81875C63.3547 10.9567 63.9366 12.0946 64.5184 13.1808V13.2843C64.3729 13.4394 64.3244 13.5946 64.2275 13.8015C62.8699 12.8187 61.5608 11.836 60.2032 10.905C60.1063 10.8015 59.9608 10.7498 59.9123 10.6463C59.1366 9.19806 58.3608 7.69806 57.585 6.24978C57.5366 6.14633 57.5366 6.04288 57.5366 5.88771C57.3911 4.12909 57.2941 2.42219 57.1972 0.663574ZM54.5305 12.3532C55.1608 12.3015 55.7911 12.3532 56.4699 12.3532C57.4396 12.3532 58.4093 12.3532 59.379 12.3532C59.5244 12.3532 59.6214 12.405 59.7669 12.4567C61.2214 13.1291 62.7244 13.8015 64.179 14.5256C64.179 14.6808 63.985 14.836 63.9366 14.9912H50.1669C50.0699 14.836 49.9244 14.6808 49.8759 14.5256C50.6032 14.1636 51.3305 13.8532 52.1063 13.4912C52.9305 13.0774 53.7547 12.6636 54.5305 12.3532ZM2.74867 6.19806C2.74867 7.12909 2.74867 8.06013 2.74867 8.99116C3.57292 8.99116 4.34867 8.99116 5.17292 8.99116C5.60928 8.99116 5.99716 8.93944 6.38504 8.73254C6.62746 8.57737 6.8214 8.26702 6.86989 7.95668C6.96686 7.54288 6.86989 7.07737 6.62746 6.76702C6.28807 6.40495 5.75473 6.24978 5.26989 6.24978C4.39716 6.19806 3.57292 6.19806 2.74867 6.19806ZM0.90625 4.43944C2.16686 4.43944 3.42746 4.43944 4.68807 4.43944C5.2214 4.43944 5.80322 4.43944 6.33655 4.59461C7.01534 4.74978 7.69413 5.11185 8.13049 5.68082C8.61534 6.35323 8.71231 7.23254 8.61534 8.06013C8.51837 8.78426 8.13049 9.5084 7.54867 9.92219C6.91837 10.3877 6.1911 10.4912 5.46383 10.4394C6.53049 11.6808 7.59716 12.9739 8.61534 14.2153C8.71231 14.3187 8.80928 14.4739 8.90625 14.5774C8.13049 14.5774 7.35473 14.5774 6.57898 14.5774C5.46383 13.2843 4.34867 11.9394 3.23352 10.6463C3.08807 10.4912 2.94261 10.2843 2.79716 10.1291C2.74867 11.6291 2.79716 13.0774 2.79716 14.5774C2.16686 14.6291 1.53655 14.5774 0.954735 14.5774L0.90625 4.43944ZM27.7184 8.42219C27.185 8.52564 26.7487 9.09461 26.7002 9.7153C26.7002 10.4394 26.7002 11.2153 26.7002 11.9394C26.7002 12.5084 26.9911 13.0774 27.4275 13.2843C27.9123 13.5429 28.5426 13.5429 29.0275 13.2843C29.4638 13.0256 29.7063 12.5601 29.7063 11.9912C29.7063 11.267 29.7063 10.5946 29.7063 9.87047C29.7063 9.35323 29.5123 8.88771 29.1244 8.57737C28.7366 8.31875 28.2032 8.26702 27.7184 8.42219ZM24.9062 4.43944C25.4881 4.43944 26.1184 4.43944 26.7002 4.43944C26.7002 5.31875 26.7002 6.19806 26.7002 7.07737C26.9911 6.87047 27.3305 6.66357 27.6699 6.61185C28.5911 6.45668 29.6093 6.61185 30.3366 7.23254C31.0638 7.85323 31.4517 8.83599 31.4517 9.81875C31.4517 10.5429 31.4517 11.2153 31.4517 11.9394C31.4517 12.8187 31.1608 13.6463 30.6275 14.267C30.0456 14.9394 29.2699 15.2498 28.4456 15.3015H27.7184C27.0881 15.2498 26.4578 14.9912 25.9244 14.5256C25.5366 14.6808 25.2456 15.1463 24.7608 15.0429C24.9063 11.5256 24.9062 7.95668 24.9062 4.43944ZM40.5184 4.43944C41.1487 4.43944 41.779 4.43944 42.4093 4.43944C42.4093 6.24978 42.4093 8.06013 42.4093 9.87047C42.8941 9.35323 43.3305 8.78426 43.8153 8.2153C44.3002 7.59461 44.8335 7.02564 45.3184 6.40495C46.0941 6.40495 46.8699 6.40495 47.5972 6.40495C47.5972 6.5084 47.5002 6.56013 47.4517 6.66357C46.385 7.90495 45.3669 9.19806 44.2517 10.4394C45.1244 11.4739 46.0456 12.5084 46.9184 13.5429C47.2093 13.905 47.5002 14.2153 47.7426 14.5774C47.0153 14.5774 46.2396 14.5774 45.5123 14.5774C45.3669 14.5774 45.3184 14.4222 45.2214 14.3705C44.2517 13.2843 43.3305 12.1463 42.3608 11.0601C42.3608 12.2498 42.3608 13.4394 42.3608 14.6291C41.7305 14.6291 41.1002 14.6291 40.4699 14.6291C40.5184 11.1636 40.5184 7.80151 40.5184 4.43944ZM11.3305 8.78426C11.0396 9.09461 10.9911 9.56013 10.9911 9.97392C12.0093 9.97392 13.0275 9.97392 14.0456 9.97392C14.0456 9.61185 13.9972 9.30151 13.8517 8.99116C13.6093 8.57737 13.1729 8.37047 12.785 8.37047C12.3002 8.26702 11.7184 8.37047 11.3305 8.78426ZM10.0699 7.59461C10.7002 6.92219 11.6214 6.66357 12.4941 6.66357C13.3184 6.66357 14.1426 6.87047 14.7729 7.38771C15.3063 7.80151 15.6456 8.47392 15.7911 9.14633C15.8881 9.7153 15.8396 10.2325 15.8396 10.8015C15.8396 11.0084 15.8396 11.1636 15.7911 11.3705C14.1911 11.3705 12.5911 11.3705 10.9911 11.3705C10.9426 11.8877 11.0396 12.4567 11.4275 12.8705C11.7669 13.1808 12.2517 13.2843 12.6396 13.2843C13.0759 13.2843 13.5608 13.2325 13.9002 12.9222C14.0456 12.767 14.0941 12.5601 14.1911 12.3532C14.7244 12.3532 15.3062 12.3532 15.8396 12.3532C15.7911 12.9739 15.5972 13.5946 15.1608 14.0601C14.6759 14.5774 13.9972 14.836 13.3184 14.8877C12.8335 14.8877 12.3972 14.8877 11.9123 14.8877C11.185 14.7843 10.5063 14.4739 10.0214 13.905C9.48807 13.336 9.19716 12.5084 9.24564 11.6808C9.24564 11.0084 9.24564 10.336 9.24564 9.7153C9.24564 8.93944 9.53655 8.16357 10.0699 7.59461ZM18.6517 8.78426C18.3608 9.09461 18.3123 9.56013 18.3123 9.97392C19.3305 9.97392 20.3487 9.97392 21.3669 9.97392C21.3669 9.61185 21.3184 9.19806 21.0759 8.88771C20.8335 8.52564 20.3972 8.37047 19.9608 8.31875C19.5244 8.31875 18.9911 8.37047 18.6517 8.78426ZM17.4396 7.54288C18.1184 6.92219 18.9911 6.66357 19.8638 6.66357C20.7366 6.66357 21.6578 6.92219 22.3366 7.59461C22.9184 8.2153 23.2093 9.09461 23.1608 9.97392C23.1608 10.4394 23.2093 10.905 23.1608 11.3187C21.5608 11.3187 19.9608 11.3187 18.4093 11.3187C18.3123 11.7843 18.4093 12.3532 18.7002 12.7153C19.0396 13.1291 19.5729 13.1808 20.0093 13.2325C20.4941 13.2325 21.0759 13.1808 21.3669 12.7153C21.4638 12.6118 21.4638 12.405 21.5608 12.3015C22.0941 12.3015 22.6275 12.3015 23.1608 12.3015C23.1123 12.9739 22.8699 13.6463 22.4335 14.1118C21.9487 14.5774 21.3184 14.7843 20.6396 14.8877C20.2032 14.8877 19.7669 14.8877 19.3305 14.8877C18.4578 14.7843 17.6335 14.3187 17.1002 13.4912C16.7608 12.9739 16.6153 12.3532 16.6153 11.7325C16.6153 11.0601 16.6153 10.3877 16.6153 9.76702C16.5669 8.99116 16.8578 8.11185 17.4396 7.54288ZM35.6214 8.47392C35.3305 8.57737 35.0881 8.73254 34.8941 8.99116C34.7002 9.24978 34.6517 9.61185 34.6517 9.97392C34.6517 10.5429 34.6517 11.1118 34.6517 11.6808C34.6517 12.0429 34.7487 12.405 34.9426 12.7153C35.185 13.0256 35.5244 13.1808 35.8638 13.2325C36.3487 13.2843 36.9305 13.2325 37.3184 12.8705C37.6093 12.5601 37.7063 12.1463 37.7063 11.6808C37.7063 11.0601 37.7063 10.4912 37.7063 9.87047C37.7063 9.45668 37.5608 8.99116 37.2214 8.73254C36.785 8.37047 36.1547 8.31875 35.6214 8.47392ZM35.4759 6.7153C36.3972 6.61185 37.4153 6.66357 38.1911 7.23254C38.7729 7.64633 39.2093 8.26702 39.3547 8.99116C39.5002 9.56013 39.4517 10.1808 39.4517 10.8015C39.4517 11.3705 39.5002 11.9394 39.3547 12.5084C39.2093 13.2325 38.8214 13.905 38.2396 14.3187C37.8032 14.6291 37.3184 14.836 36.785 14.8877C36.3972 14.8877 35.9608 14.8877 35.5729 14.8877C34.7487 14.7843 33.9244 14.3705 33.3911 13.6463C33.1002 13.2325 32.9547 12.7153 32.8578 12.1981C32.8093 11.7843 32.8093 11.3187 32.8093 10.8532C32.8093 10.1808 32.7608 9.45668 32.9547 8.78426C33.1487 8.11185 33.5366 7.49116 34.1184 7.12909C34.6032 6.97392 35.0396 6.81875 35.4759 6.7153Z" fill="white"/>
</g>
<defs>
<clipPath id="clip0">
<rect x="0.90625" y="0.663574" width="64" height="15" fill="white"/>
</clipPath>
</defs>
</svg>
