<svg width="56" height="14" viewBox="0 0 56 14" fill="none" xmlns="http://www.w3.org/2000/svg">
<path d="M0.90625 3.37634V1.05974C0.90625 0.879021 1.0293 0.732422 1.18111 0.732422H3.12639C3.2782 0.732422 3.40125 0.879021 3.40125 1.05974V3.37634C3.40125 3.55712 3.2782 3.70366 3.12639 3.70366H1.18111C1.0293 3.70366 0.90625 3.55717 0.90625 3.37634Z" fill="white"/>
<path d="M55.3869 13.1229L50.0194 0.902735C49.9719 0.794763 49.8781 0.72709 49.7758 0.72709H44.991C44.8893 0.72709 44.7959 0.794011 44.7482 0.901001L39.9582 11.6557C39.9176 11.7466 39.8175 11.771 39.7503 11.7062L35.2261 7.34568C35.0958 7.2201 35.0894 6.98626 35.2124 6.85086L40.2598 1.29224C40.4434 1.09004 40.3233 0.724609 40.0732 0.724609H36.7103C36.4805 0.724609 36.2593 0.828424 36.0914 1.01509L32.1434 5.53373C32.1179 5.56202 32.0844 5.57772 32.0496 5.57772H30.8916C30.8157 5.57772 30.7541 5.50445 30.7541 5.41409V1.06169C30.7541 0.880909 30.6311 0.734368 30.4792 0.734368H27.7104C27.5586 0.734368 27.4355 0.880909 27.4355 1.06169V13.2721C27.4355 13.4529 27.5586 13.5994 27.7104 13.5994H30.4792C30.6311 13.5994 30.7541 13.4529 30.7541 13.2721V8.72454C30.7541 8.63418 30.8157 8.56085 30.8916 8.56085H32.0045C32.0372 8.56085 32.0689 8.57471 32.0938 8.60011L36.6122 13.3444C36.774 13.509 36.9798 13.5994 37.1925 13.602H42.6846C42.7882 13.602 42.883 13.5326 42.9298 13.4226L43.742 11.5129C43.7654 11.4579 43.8128 11.4231 43.8646 11.4231H50.8478C50.8996 11.4231 50.947 11.4579 50.9704 11.5129L51.7825 13.4225C51.8294 13.5326 51.9241 13.602 52.0278 13.602H55.1433C55.3498 13.6019 55.4826 13.3408 55.3869 13.1229ZM49.5519 8.60283H45.1767C45.0741 8.60283 45.0077 8.47372 45.0543 8.36483L47.2456 3.24416C47.2967 3.12493 47.4398 3.12504 47.4906 3.24433L49.6745 8.36506C49.7209 8.47401 49.6544 8.60283 49.5519 8.60283Z" fill="white"/>
<path d="M19.0339 3.7036H26.1887C26.3405 3.7036 26.4635 3.55706 26.4635 3.37628V1.05974C26.4635 0.878963 26.3405 0.732422 26.1887 0.732422H4.32998C4.17823 0.732422 4.05518 0.878963 4.05518 1.05974V3.37628C4.05518 3.55706 4.17823 3.7036 4.32998 3.7036H6.97316C7.04908 3.7036 7.11061 3.77687 7.11061 3.86723V13.2717C7.11061 13.4524 7.23366 13.599 7.38547 13.599H10.144C10.2957 13.599 10.4188 13.4524 10.4188 13.2717V3.86723C10.4188 3.77687 10.4804 3.7036 10.5562 3.7036H15.4507C15.5267 3.7036 15.5882 3.77687 15.5882 3.86723V13.2717C15.5882 13.4524 15.7112 13.599 15.863 13.599H26.1887C26.3405 13.599 26.4635 13.4524 26.4635 13.2717V10.7988C26.4635 10.618 26.3405 10.4714 26.1887 10.4714H19.0339C18.9579 10.4714 18.8964 10.3981 18.8964 10.3078V8.67843C18.8964 8.58812 18.9579 8.51474 19.0339 8.51474H24.8679C25.0197 8.51474 25.1427 8.3682 25.1427 8.18742V6.02729C25.1427 5.84651 25.0197 5.69992 24.8679 5.69992H19.0339C18.9579 5.69992 18.8964 5.62665 18.8964 5.53629V3.86717C18.8964 3.77687 18.9579 3.7036 19.0339 3.7036Z" fill="white"/>
</svg>
