<?xml version="1.0" encoding="utf-8"?>
<!-- Generator: Adobe Illustrator 25.2.3, SVG Export Plug-In . SVG Version: 6.00 Build 0)  -->
<svg version="1.1" id="Capa_1" xmlns="http://www.w3.org/2000/svg" xmlns:xlink="http://www.w3.org/1999/xlink" x="0px" y="0px"
	 viewBox="0 0 512 512" style="enable-background:new 0 0 512 512;" xml:space="preserve">
<g>
	<g>
		<path d="M347.5,152.4H124.8c-6.9,0-12.5-5.6-12.5-12.5v-6.3c0-7-5.7-12.7-12.7-12.7h-67c-14.1,0-25.5,11.4-25.5,25.5v214.4
			l32.7-159c1.2-5.8,6.3-10,12.2-10h321v-13.9C373,163.8,361.6,152.4,347.5,152.4z"/>
	</g>
</g>
<g>
	<g>
		<path d="M413.5,216.7H62.2l0,0L13.1,455.9c-1.6,7.8,4.4,15.2,12.4,15.2H391c13,0,23.9-9.8,25.3-22.7L438.8,245
			C440.5,229.9,428.7,216.7,413.5,216.7z"/>
	</g>
</g>
</svg>
